<svg xmlns="http://www.w3.org/2000/svg" width="72" height="72" viewBox="0 0 72 72">
  <circle cx="36" cy="36" r="36" fill="#a9091f"/>
  <path d="M28.5383,35.833c0-.5246,.9076-1.3246,2.0692-1.3246,1.1735,0,2.0589,.8253,2.0589,1.3246v1.3586c0-.7019-.8411-1.8833-2.0589-1.8833-1.1505,0-2.0692,1.1813-2.0692,1.8833v-1.3586" fill="#fff"/>
  <path d="M32.6665,30.9088c0,.5246-.8965,1.3246-2.0581,1.3246-1.1735,0-2.07-.8253-2.07-1.3246v-1.3586c0,.7019,.8522,1.8833,2.07,1.8833,1.1505,0,2.0581-1.1813,2.0581-1.8833v1.3586" fill="#fff"/>
  <path d="M45.1347,35.833c0-.5246,.9076-1.3246,2.0692-1.3246,1.1735,0,2.0589,.8253,2.0589,1.3246v1.3586c0-.7019-.8411-1.8833-2.0589-1.8833-1.1505,0-2.0692,1.1813-2.0692,1.8833v-1.3586" fill="#fff"/>
  <path d="M49.2628,30.9088c0,.5246-.8965,1.3246-2.0581,1.3246-1.1735,0-2.07-.8253-2.07-1.3246v-1.3586c0,.7019,.8522,1.8833,2.07,1.8833,1.1505,0,2.0581-1.1813,2.0581-1.8833v1.3586" fill="#fff"/>
  <path d="M46.9594,54.9757c2.8913-2.3414,11.8637-5.9782,11.8637-10.1902l.0063-18.4218c0-1.8333,.8633-4.2413,3.7966-4.2413v-.7248c-3.8021-2.3865-6.5851-5.4527-8.1233-7.6635-3.2261,3.6897-5.1133,4.8387-9.4463,8.2412l.0253,1.3206c1.1118-1.2107,2.1491-1.9845,3.4563-1.0722,.7185,.5008,.6852,2.688,.6742,4.9218v25.7824l-6.9775-6.0857,.0142-24.7038c0-5.3229-3.499-7.4721-4.8458-8.4263-2.434,2.9087-5.6925,5.4994-8.9027,8.2031-.0008-.1336-.0103,1.3404,0,1.3278,.9092-1.1656,2.3018-1.9314,3.4302-1.0184,.6188,.5001,.6852,2.4593,.6852,4.3505v24.0952s10.1252,6.8161,10.907,7.6178c.0111,.0102,1.8476-2.0258,3.4365-3.3123" fill="#fff"/>
  <path d="M26.1851,58.3283c1.9458-2.6436,8.5886-8.2657,8.5886-8.2657-.2136-.2998-.5745-.8126-.5745-.8126-.4376,.432-1.7345,1.6118-2.5709,2.298,0,0-.4344-.7558-.6322-1.0002-1.3096-1.6173-3.2181-3.0409-5.3744-3.6858l-.0016-24.787c.0016-5.2961-3.7633-7.4555-5.1837-8.3764-2.2971,2.6255-6.6721,6.134-10.1893,9.0705l.5428,.6932c.8712-.724,2.1175-1.8223,3.272-1.4837,2.0613,.6045,1.9386,4.2729,1.9505,5.0333l.0269,19.6159c-5.7423,2.3699-5.2082,6.8003-4.6235,8.7555,.4582,1.5335,2.4783,4.0838,5.7083,4.322l.0752-.7152c-.9836-.1598-2.233-.5729-2.233-2.1713,0-2.6889,3.2015-3.2712,4.2967-3.2712,3.6431,0,5.842,3.1192,6.9221,4.7809" fill="#fff"/>
  <polyline points="44.4146 13.8115 44.4146 51.1917 45.1877 51.1917 45.1877 13.81 44.4146 13.8115" fill="#fff"/>
  <rect x="27.7779" y="13.7594" width=".7912" height="37.8747" fill="#fff"/>
</svg>
